<?xml version="1.0" encoding="UTF-8" standalone="no"?>
<svg
   width="750"
   height="304.05664"
   viewBox="0 0 750 304.05664"
   version="1.1"
   id="svg9"
   sodipodi:docname="EventIT_Logo_Original_with_Transparent_Background_cropped.svg"
   inkscape:version="1.1.2 (0a00cf5339, 2022-02-04)"
   xmlns:inkscape="http://www.inkscape.org/namespaces/inkscape"
   xmlns:sodipodi="http://sodipodi.sourceforge.net/DTD/sodipodi-0.dtd"
   xmlns="http://www.w3.org/2000/svg"
   xmlns:svg="http://www.w3.org/2000/svg">
  <sodipodi:namedview
     id="namedview11"
     pagecolor="#ffffff"
     bordercolor="#666666"
     borderopacity="1.0"
     inkscape:pageshadow="2"
     inkscape:pageopacity="0.0"
     inkscape:pagecheckerboard="0"
     showgrid="false"
     height="250px"
     fit-margin-top="25"
     fit-margin-left="25"
     fit-margin-right="25"
     fit-margin-bottom="25"
     lock-margins="true"
     inkscape:zoom="0.873"
     inkscape:cx="239.97709"
     inkscape:cy="151.77549"
     inkscape:window-width="3370"
     inkscape:window-height="1376"
     inkscape:window-x="70"
     inkscape:window-y="27"
     inkscape:window-maximized="1"
     inkscape:current-layer="svg9" />
  <defs
     id="defs2" />
  <path
     fill="#00949f"
     d="m 179.39706,208.74007 c -7.06931,4.03961 -12.25347,10.09902 -15.41782,16.96634 H 103.51982 L 60.70001,151.51234 84.53368,110.17372 C 72.68417,107.48065 62.11387,100.47866 55.11189,90.379649 L 28.98911,135.75788 c -5.318813,9.29109 -5.318813,22.21783 0,31.44159 l 45.10892,78.09903 c 5.31881,9.29109 16.56238,15.75446 27.26733,15.75446 h 64.83566 c 10.63763,17.3703 33.25941,23.1604 51.03367,12.99406 18.04357,-10.36832 24.17031,-33.52872 13.80199,-51.50496 -10.50298,-18.04357 -33.59605,-24.23763 -51.63962,-13.80199 z m 27.60397,47.66734 c -8.28119,4.7802 -18.91882,1.95248 -23.76634,-6.32871 -4.7802,-8.28119 -1.95248,-18.91882 6.32871,-23.76635 8.28119,-4.78019 18.91882,-1.95247 23.76634,6.32872 4.7802,8.34852 1.95248,18.98614 -6.32871,23.76634 z"
     id="path4"
     style="stroke-width:0.673267" />
  <path
     fill="#f9921e"
     d="M 263.8248,135.75788 218.71588,57.658849 c -5.31881,-9.29109 -16.56238,-15.75446 -27.26733,-15.75446 H 126.54557 C 115.63863,25.409339 93.55546,20.023201 76.25249,30.054889 58.27625,40.423209 52.08218,63.583609 62.4505,81.559849 c 10.36832,18.04357 33.52872,24.237631 51.50496,13.80198 7.40595,-4.30891 12.85941,-10.70495 15.88912,-18.11089 h 59.31486 l 42.81981,74.194071 -24.30495,42.14655 c 11.91683,2.35643 22.62178,9.15643 29.82575,19.05346 l 26.25743,-45.44555 c 5.45346,-9.22376 5.45346,-22.1505 0.0673,-31.44159 z M 103.85645,77.789549 c -8.28119,4.7802 -18.91881,1.95248 -23.76634,-6.32871 -4.7802,-8.28119 -1.95247,-18.91882 6.32871,-23.76634 8.28119,-4.7802 18.91882,-1.95248 23.76635,6.32871 4.7802,8.28119 1.95247,18.98614 -6.32872,23.76634 z"
     id="path6"
     style="stroke-width:0.673267" />
  <path
     id="text"
     fill="#201b18"
     d="m 361.68778,193.7475 h -52.25809 v -84.06195 h 51.75921 v 15.34068 h -32.42746 v 19.08232 h 28.93527 v 15.21595 h -28.93527 v 19.08232 h 32.92634 z m 50.13784,0 h -18.70815 l -23.32282,-63.23354 h 19.08231 l 8.23158,26.93973 c 1.24721,4.15737 2.32813,8.08608 3.24275,11.78613 0.91462,3.70006 1.49665,6.38156 1.74609,8.04451 l 0.49888,2.3697 c 0.74833,-5.40458 2.61914,-12.80469 5.61245,-22.20034 l 8.48102,-26.93973 h 18.70815 z m 81.31808,-3.61691 c -4.32366,2.82701 -10.93388,4.24051 -19.83064,4.24051 -10.39341,0 -18.47949,-3.01409 -24.25823,-9.04227 -5.77874,-6.02818 -8.66811,-13.78167 -8.66811,-23.26046 0,-10.06083 2.80622,-17.93904 8.41867,-23.63463 5.61244,-5.69559 12.53446,-8.54339 20.76604,-8.54339 8.48103,0 15.17439,2.47364 20.08008,7.4209 4.90569,4.94727 7.35854,12.32659 7.35854,22.13798 0,1.91238 -0.33259,5.1967 -0.99777,9.85295 h -37.16685 c 1.24721,3.49219 3.40904,6.19448 6.48549,8.10687 3.07645,1.91239 6.7765,2.86858 11.10017,2.86858 6.40234,0 11.97321,-1.78767 16.71261,-5.363 z m -22.82394,-46.39621 c -2.91016,0 -5.48773,1.06013 -7.7327,3.18039 -2.24498,2.12025 -3.74163,5.25907 -4.48996,9.41643 h 21.95089 v -1.49665 c -0.58203,-7.40011 -3.82477,-11.10017 -9.72823,-11.10017 z m 97.65653,50.01312 h -18.20927 v -37.66574 c 0,-3.74163 -0.87304,-6.58943 -2.61914,-8.54339 -1.74609,-1.95396 -4.19894,-2.93094 -7.35854,-2.93094 -3.32589,0 -6.09054,1.30957 -8.29394,3.92871 -2.2034,2.61914 -3.30511,6.54785 -3.30511,11.78613 v 33.42523 h -18.20926 v -63.23354 h 18.20926 v 10.726 c 1.5798,-3.49218 4.01186,-6.25683 7.29618,-8.29394 3.28432,-2.03711 7.21303,-3.05567 11.78613,-3.05567 6.48549,0 11.55748,1.93318 15.21596,5.79953 3.65849,3.86635 5.48773,9.54115 5.48773,17.02441 z m 51.26032,-1.37193 c -3.07645,1.33035 -7.23382,1.99553 -12.4721,1.99553 -14.38448,0 -21.57673,-7.19224 -21.57673,-21.57673 V 143.8591 h -9.10463 v -13.34514 h 9.10463 v -14.96652 h 18.20927 v 14.96652 h 14.71707 v 13.34514 h -14.71707 v 29.05999 c 0,2.24498 0.64439,3.9495 1.93317,5.11356 1.28878,1.16406 2.97252,1.7461 5.0512,1.7461 3.32589,0 6.27762,-0.83148 8.85519,-2.49442 z m 32.30273,1.37193 h -19.20703 v -84.06195 h 19.20703 z M 725,125.15096 H 704.54576 V 193.7475 H 685.21401 V 125.15096 H 664.63505 V 109.68555 H 725 Z"
     style="stroke-width:1.29918" />
</svg>
