<svg width="1000" height="1000" viewBox="0 0 1000 1000" xmlns="http://www.w3.org/2000/svg"><defs/><path fill="#ffffff" d="M 0 0 L 1000 0 L 1000 1000 L 0 1000 Z"/><path fill="#00949f" transform="matrix(0.6732674695047943 0 0 0.6732674695047943 21.262119421975513 57.86479079540935)" d="M 420.53857619241 740.93430329808 C 410.03857619241 746.93430329808 402.33857619241 755.93430329808 397.63857619241 766.13430329808 L 307.83857619241 766.13430329808 L 244.23857619241 655.93430329808 L 279.63857619241 594.53430329808 C 262.03857619241 590.53430329808 246.33857619241 580.13430329808 235.93857619241 565.13430329808 L 197.13857619241 632.53430329808 C 189.23857619241 646.33430329808 189.23857619241 665.53430329808 197.13857619241 679.23430329808 L 264.13857619241 795.23430329808 C 272.03857619241 809.03430329808 288.73857619241 818.63430329808 304.63857619241 818.63430329808 L 400.93857619241 818.63430329808 C 416.73857619241 844.43430329808 450.33857619241 853.03430329808 476.73857619241 837.93430329808 C 503.53857619241 822.53430329808 512.63857619241 788.13430329808 497.23857619241 761.43430329808 C 481.63857619241 734.63430329808 447.33857619241 725.43430329808 420.53857619241 740.93430329808 Z M 461.53857619241 811.73430329808 C 449.23857619241 818.83430329808 433.43857619241 814.63430329808 426.23857619241 802.33430329808 C 419.13857619241 790.03430329808 423.33857619241 774.23430329808 435.63857619241 767.03430329808 C 447.93857619241 759.93430329808 463.73857619241 764.13430329808 470.93857619241 776.43430329808 C 478.03857619241 788.83430329808 473.83857619241 804.63430329808 461.53857619241 811.73430329808 Z"/><path fill="#f9921e" transform="matrix(0.6732674695047943 0 0 0.6732674695047943 21.262119421975513 57.86479079540935)" d="M 545.93857619241 632.53430329808 L 478.93857619241 516.53430329808 C 471.03857619241 502.73430329808 454.33857619241 493.13430329808 438.43857619241 493.13430329808 L 342.03857619241 493.13430329808 C 325.83857619241 468.63430329808 293.03857619241 460.63430329808 267.33857619241 475.53430329808 C 240.63857619241 490.93430329808 231.43857619241 525.33430329808 246.83857619241 552.03430329808 C 262.23857619241 578.83430329808 296.63857619241 588.03430329808 323.33857619241 572.53430329808 C 334.33857619241 566.13430329808 342.43857619241 556.63430329808 346.93857619241 545.63430329808 L 435.03857619241 545.63430329808 L 498.63857619241 655.83430329808 L 462.53857619241 718.43430329808 C 480.23857619241 721.93430329808 496.13857619241 732.03430329808 506.83857619241 746.73430329808 L 545.83857619241 679.23430329808 C 553.93857619241 665.53430329808 553.93857619241 646.33430329808 545.93857619241 632.53430329808 Z M 308.33857619241 546.43430329808 C 296.03857619241 553.53430329808 280.23857619241 549.33430329808 273.03857619241 537.03430329808 C 265.93857619241 524.73430329808 270.13857619241 508.93430329808 282.43857619241 501.73430329808 C 294.73857619241 494.63430329808 310.53857619241 498.83430329808 317.73857619241 511.13430329808 C 324.83857619241 523.43430329808 320.63857619241 539.33430329808 308.33857619241 546.43430329808 Z"/><path id="text" fill="#201b18" transform="matrix(1.2991768844974563 0 0 1.2991768844974563 341.39782784276554 103.5634871736056)" d="M 111.83231205464 337.2563706834 L 71.60831205464 337.2563706834 L 71.60831205464 272.5523706834 L 111.44831205464 272.5523706834 L 111.44831205464 284.3603706834 L 86.48831205464 284.3603706834 L 86.48831205464 299.0483706834 L 108.76031205464 299.0483706834 L 108.76031205464 310.7603706834 L 86.48831205464 310.7603706834 L 86.48831205464 325.4483706834 L 111.83231205464 325.4483706834 L 111.83231205464 337.2563706834 Z M 150.42431205464 337.2563706834 L 136.02431205464 337.2563706834 L 118.07231205464 288.5843706834 L 132.76031205464 288.5843706834 L 139.09631205464 309.3203706834 C 140.05631205464 312.5203706834 140.88831205464 315.5443706834 141.59231205464 318.3923706834 C 142.29631205464 321.2403706834 142.74431205464 323.3043706834 142.93631205464 324.5843706834 L 143.32031205464 326.4083706834 C 143.89631205464 322.2483706834 145.33631205464 316.5523706834 147.64031205464 309.3203706834 L 154.16831205464 288.5843706834 L 168.56831205464 288.5843706834 L 150.42431205464 337.2563706834 Z M 213.01631205464 334.4723706834 C 209.68831205464 336.6483706834 204.60031205464 337.7363706834 197.75231205464 337.7363706834 C 189.75231205464 337.7363706834 183.52831205464 335.4163706834 179.08031205464 330.7763706834 C 174.63231205464 326.1363706834 172.40831205464 320.1683706834 172.40831205464 312.8723706834 C 172.40831205464 305.1283706834 174.56831205464 299.0643706834 178.88831205464 294.6803706834 C 183.20831205464 290.2963706834 188.53631205464 288.1043706834 194.87231205464 288.1043706834 C 201.40031205464 288.1043706834 206.55231205464 290.0083706834 210.32831205464 293.8163706834 C 214.10431205464 297.6243706834 215.99231205464 303.3043706834 215.99231205464 310.8563706834 C 215.99231205464 312.3283706834 215.73631205464 314.8563706834 215.22431205464 318.4403706834 L 186.61631205464 318.4403706834 C 187.57631205464 321.1283706834 189.24031205464 323.2083706834 191.60831205464 324.6803706834 C 193.97631205464 326.1523706834 196.82431205464 326.8883706834 200.15231205464 326.8883706834 C 205.08031205464 326.8883706834 209.36831205464 325.5123706834 213.01631205464 322.7603706834 L 213.01631205464 334.4723706834 Z M 195.44831205464 298.7603706834 C 193.20831205464 298.7603706834 191.22431205464 299.5763706834 189.49631205464 301.2083706834 C 187.76831205464 302.8403706834 186.61631205464 305.2563706834 186.04031205464 308.4563706834 L 202.93631205464 308.4563706834 L 202.93631205464 307.3043706834 C 202.48831205464 301.6083706834 199.99231205464 298.7603706834 195.44831205464 298.7603706834 Z M 270.61631205464 337.2563706834 L 256.60031205464 337.2563706834 L 256.60031205464 308.2643706834 C 256.60031205464 305.3843706834 255.92831205464 303.1923706834 254.58431205464 301.6883706834 C 253.24031205464 300.1843706834 251.35231205464 299.4323706834 248.92031205464 299.4323706834 C 246.36031205464 299.4323706834 244.23231205464 300.4403706834 242.53631205464 302.4563706834 C 240.84031205464 304.4723706834 239.99231205464 307.4963706834 239.99231205464 311.5283706834 L 239.99231205464 337.2563706834 L 225.97631205464 337.2563706834 L 225.97631205464 288.5843706834 L 239.99231205464 288.5843706834 L 239.99231205464 296.8403706834 C 241.20831205464 294.1523706834 243.08031205464 292.0243706834 245.60831205464 290.4563706834 C 248.13631205464 288.8883706834 251.16031205464 288.1043706834 254.68031205464 288.1043706834 C 259.67231205464 288.1043706834 263.57631205464 289.5923706834 266.39231205464 292.5683706834 C 269.20831205464 295.5443706834 270.61631205464 299.9123706834 270.61631205464 305.6723706834 L 270.61631205464 337.2563706834 Z M 310.07231205464 336.2003706834 C 307.70431205464 337.2243706834 304.50431205464 337.7363706834 300.47231205464 337.7363706834 C 289.40031205464 337.7363706834 283.86431205464 332.2003706834 283.86431205464 321.1283706834 L 283.86431205464 298.8563706834 L 276.85631205464 298.8563706834 L 276.85631205464 288.5843706834 L 283.86431205464 288.5843706834 L 283.86431205464 277.0643706834 L 297.88031205464 277.0643706834 L 297.88031205464 288.5843706834 L 309.20831205464 288.5843706834 L 309.20831205464 298.8563706834 L 297.88031205464 298.8563706834 L 297.88031205464 321.2243706834 C 297.88031205464 322.9523706834 298.37631205464 324.2643706834 299.36831205464 325.1603706834 C 300.36031205464 326.0563706834 301.65631205464 326.5043706834 303.25631205464 326.5043706834 C 305.81631205464 326.5043706834 308.08831205464 325.8643706834 310.07231205464 324.5843706834 L 310.07231205464 336.2003706834 Z M 334.93631205464 337.2563706834 L 320.15231205464 337.2563706834 L 320.15231205464 272.5523706834 L 334.93631205464 272.5523706834 L 334.93631205464 337.2563706834 Z M 391.48031205464 284.4563706834 L 375.73631205464 284.4563706834 L 375.73631205464 337.2563706834 L 360.85631205464 337.2563706834 L 360.85631205464 284.4563706834 L 345.01631205464 284.4563706834 L 345.01631205464 272.5523706834 L 391.48031205464 272.5523706834 L 391.48031205464 284.4563706834 Z"/></svg>
